<mxfile host="app.diagrams.net" modified="2024-01-30T08:54:48.317Z" agent="Mozilla/5.0 (Macintosh; Intel Mac OS X 10_15_7) AppleWebKit/537.36 (KHTML, like Gecko) Chrome/121.0.0.0 Safari/537.36" version="22.1.21" etag="f-bQeYmCUnf88ldwhZSi" type="github">
  <diagram name="Page-1" id="BYAd6YRiUkzF32hPVrgd">
    <mxGraphModel>
      <root>
        <mxCell id="0" />
        <mxCell id="1" parent="0" />
      </root>
    </mxGraphModel>
  </diagram>
</mxfile>
